<svg width="35" height="35" viewBox="0 0 35 35" fill="none" xmlns="http://www.w3.org/2000/svg">
<path d="M23.9285 14.9286C23.9285 19.8906 19.8906 23.9286 14.9285 23.9286C9.96645 23.9286 5.9285 19.8906 5.9285 14.9286C5.9285 9.96651 9.96645 5.92856 14.9285 5.92856C19.8906 5.92856 23.9285 9.96651 23.9285 14.9286ZM34.2142 31.6429C34.2142 30.9598 33.933 30.2969 33.4709 29.8348L26.5803 22.9442C28.2075 20.5937 29.0714 17.7812 29.0714 14.9286C29.0714 7.11383 22.7432 0.785706 14.9285 0.785706C7.11377 0.785706 0.785645 7.11383 0.785645 14.9286C0.785645 22.7433 7.11377 29.0714 14.9285 29.0714C17.7812 29.0714 20.5937 28.2076 22.9441 26.5803L29.8348 33.4509C30.2968 33.933 30.9598 34.2143 31.6428 34.2143C33.049 34.2143 34.2142 33.0491 34.2142 31.6429Z" fill="white"/>
</svg>
